<svg width="31" height="33" viewBox="0 0 31 33" fill="none" xmlns="http://www.w3.org/2000/svg">
<g filter="url(#filter0_d_1_44)">
<path d="M13.705 0.00457764V1.77268L5.41299 6.74388L5.41199 9.73798L4.62799 9.24258L4.63 5.47048L13.705 0.00457764Z" fill="#004596"/>
<path d="M26.988 6.37486L26.984 17.4083L24.542 15.9221L24.545 8.47215L23.627 9.03755L23.628 6.82146L17.894 3.35355L17.895 0.831055L26.988 6.37486Z" fill="#004596"/>
<path d="M6.711 7.52258L5.41101 8.88948L5.41199 6.74408L6.711 7.52258Z" fill="#E86B00"/>
<path d="M9.28799 9.10306L7.495 10.9884L5.41199 9.73806L5.41299 8.88936L6.71301 7.52246L9.28799 9.10306Z" fill="#DB4893"/>
<path d="M11.887 10.6834L10.094 12.5687L7.495 10.9881L9.28799 9.10278L11.887 10.6834Z" fill="#12A8DF"/>
<path d="M11.1 15.8225L11.101 13.2056L10.608 12.8989L10.093 12.5687L11.886 10.6833L14.484 12.2639L11.1 15.8225Z" fill="#004596"/>
<path d="M14.527 16.5312L11.097 20.1133L11.099 15.8226L14.484 12.264L14.528 12.2876L14.527 16.5312Z" fill="#E86B00"/>
<path d="M14.547 20.8219L13.045 22.3772L11.119 21.1977L11.12 20.0897L14.526 16.5311L14.547 20.8219Z" fill="#DB4893"/>
<path d="M23.627 6.96326L23.626 9.03786L19.01 11.7944L23.627 6.96326Z" fill="#DB4893"/>
<path d="M14.502 23.3212L13.024 22.4247L14.503 20.8458L14.502 23.3212Z" fill="#4CA4D9"/>
<path d="M11.101 13.2056L11.096 24.239L2.00201 18.6716L2.00699 7.63818L4.62701 9.24238L5.41101 9.73778L7.49399 10.9881L10.093 12.5687L10.608 12.899L11.101 13.2056Z" fill="#00A7E2"/>
<path d="M23.627 6.82147V6.96287L19.01 11.7941V11.8177L18.405 12.1711L15.447 13.9381L15.446 15.5412L14.527 16.531L14.529 12.2874L17.89 10.2612L23.627 6.82147Z" fill="#7B4A2A"/>
<path d="M15.444 19.8557L14.525 20.8219L14.527 16.5312L15.446 15.5414L15.444 19.8557Z" fill="#774159"/>
<path d="M23.627 6.96326L23.626 9.03786L19.01 11.7944L23.627 6.96326Z" fill="#774159"/>
<path d="M15.444 19.8558L15.443 22.7792L14.524 23.3447L14.525 20.8221L15.444 19.8558Z" fill="#405C6C"/>
<path d="M24.544 8.47235L24.54 19.5293L15.442 24.9953L15.444 19.8558L15.445 15.5414L15.446 13.9383L18.404 12.1712L19.009 11.8179V11.7943L23.625 9.03775L24.544 8.47235Z" fill="#00A7E2"/>
<path d="M13.704 1.7493L14.511 1.2782L13.704 1.7493Z" fill="white"/>
<path d="M6.71198 7.52198L10.164 3.89268L5.41296 6.74348L13.704 1.77228L10.164 3.89268L6.71198 7.52198Z" fill="#6775B2"/>
<path d="M6.71198 7.52231L5.41296 6.74371L10.164 3.89301L6.71198 7.52231Z" fill="#EF9659"/>
<path d="M9.28699 9.10247L6.711 7.52197L10.163 3.89267L13.704 1.74866L14.51 1.27747L15.921 2.15037L9.28699 9.10247Z" fill="#E68AB8"/>
<path d="M11.885 10.6834L9.28699 9.10277L15.922 2.15057L18.52 3.73117L11.885 10.6834Z" fill="#7FC2E9"/>
<path d="M14.484 12.2639L11.886 10.6833L18.52 3.73108L21.096 5.28818L14.484 12.2639Z" fill="#6775B2"/>
<path d="M14.529 12.2876L14.485 12.264L21.096 5.28827L23.627 6.84527L14.529 12.2876Z" fill="#EF9659"/>
</g>
<defs>
<filter id="filter0_d_1_44" x="0.0341063" y="0.00457764" width="30.2338" height="32.8623" filterUnits="userSpaceOnUse" color-interpolation-filters="sRGB">
<feFlood flood-opacity="0" result="BackgroundImageFix"/>
<feColorMatrix in="SourceAlpha" type="matrix" values="0 0 0 0 0 0 0 0 0 0 0 0 0 0 0 0 0 0 127 0" result="hardAlpha"/>
<feOffset dx="0.655972" dy="5.24778"/>
<feGaussianBlur stdDeviation="1.31194"/>
<feColorMatrix type="matrix" values="0 0 0 0 0 0 0 0 0 0 0 0 0 0 0 0 0 0 0.12 0"/>
<feBlend mode="normal" in2="BackgroundImageFix" result="effect1_dropShadow_1_44"/>
<feBlend mode="normal" in="SourceGraphic" in2="effect1_dropShadow_1_44" result="shape"/>
</filter>
</defs>
</svg>
