<svg width="14" height="15" viewBox="0 0 14 15" fill="none" xmlns="http://www.w3.org/2000/svg">
<path fill-rule="evenodd" clip-rule="evenodd" d="M7.08197 1.875C3.97497 1.875 1.45697 4.393 1.45697 7.5C1.45697 10.607 3.97497 13.125 7.08197 13.125C10.189 13.125 12.707 10.607 12.707 7.5C12.707 4.393 10.189 1.875 7.08197 1.875ZM0.20697 7.5C0.20697 3.703 3.28497 0.625 7.08197 0.625C10.879 0.625 13.957 3.703 13.957 7.5C13.957 11.297 10.879 14.375 7.08197 14.375C3.28497 14.375 0.20697 11.297 0.20697 7.5Z" fill="#00B9FF"/>
<path fill-rule="evenodd" clip-rule="evenodd" d="M7.08197 3.125C7.42697 3.125 7.70697 3.405 7.70697 3.75V7.11401L9.862 8.19101C10.17 8.34501 10.295 8.721 10.141 9.03C9.98699 9.338 9.61098 9.46299 9.30298 9.30899L6.80298 8.05899C6.59098 7.95299 6.45697 7.737 6.45697 7.5V3.75C6.45697 3.405 6.73697 3.125 7.08197 3.125Z" fill="#00B9FF"/>
</svg>
