<svg width="12" height="13" viewBox="0 0 12 13" fill="none" xmlns="http://www.w3.org/2000/svg">
<path fill-rule="evenodd" clip-rule="evenodd" d="M1.298 8.66501C1.884 8.07901 2.679 7.75 3.508 7.75H8.508C9.337 7.75 10.131 8.07901 10.718 8.66501C11.304 9.25101 11.633 10.046 11.633 10.875V12.125C11.633 12.47 11.353 12.75 11.008 12.75C10.663 12.75 10.383 12.47 10.383 12.125V10.875C10.383 10.378 10.185 9.90101 9.83401 9.54901C9.48201 9.19801 9.005 9 8.508 9H3.508C3.011 9 2.53401 9.19801 2.18201 9.54901C1.83001 9.90101 1.633 10.378 1.633 10.875V12.125C1.633 12.47 1.353 12.75 1.008 12.75C0.662996 12.75 0.382996 12.47 0.382996 12.125V10.875C0.382996 10.046 0.712004 9.25101 1.298 8.66501Z" fill="#00B9FF"/>
<path fill-rule="evenodd" clip-rule="evenodd" d="M6.008 1.5C4.972 1.5 4.133 2.339 4.133 3.375C4.133 4.411 4.972 5.25 6.008 5.25C7.043 5.25 7.883 4.411 7.883 3.375C7.883 2.339 7.043 1.5 6.008 1.5ZM2.883 3.375C2.883 1.649 4.282 0.25 6.008 0.25C7.734 0.25 9.133 1.649 9.133 3.375C9.133 5.101 7.734 6.5 6.008 6.5C4.282 6.5 2.883 5.101 2.883 3.375Z" fill="#00B9FF"/>
</svg>
