<svg width="14" height="13" viewBox="0 0 14 13" fill="none" xmlns="http://www.w3.org/2000/svg">
<path fill-rule="evenodd" clip-rule="evenodd" d="M0 0.625C0 0.28 0.28 0 0.625 0H4.375C5.204 0 5.99799 0.329009 6.58499 0.915009C7.17099 1.50101 7.5 2.296 7.5 3.125V11.875C7.5 12.22 7.22 12.5 6.875 12.5C6.53 12.5 6.25 12.22 6.25 11.875C6.25 11.543 6.118 11.226 5.884 10.991C5.649 10.757 5.331 10.625 5 10.625H0.625C0.28 10.625 0 10.345 0 10V0.625ZM6.25 9.70999V3.125C6.25 2.628 6.05202 2.15101 5.70102 1.79901C5.34902 1.44801 4.872 1.25 4.375 1.25H1.25V9.375H5C5.442 9.375 5.873 9.49199 6.25 9.70999Z" fill="#00B9FF"/>
<path fill-rule="evenodd" clip-rule="evenodd" d="M7.16501 0.915009C7.75101 0.329009 8.546 0 9.375 0H13.125C13.47 0 13.75 0.28 13.75 0.625V10C13.75 10.345 13.47 10.625 13.125 10.625H8.75C8.418 10.625 8.1 10.757 7.866 10.991C7.632 11.226 7.5 11.543 7.5 11.875C7.5 12.22 7.22 12.5 6.875 12.5C6.53 12.5 6.25 12.22 6.25 11.875V3.125C6.25 2.296 6.57901 1.50101 7.16501 0.915009ZM7.5 9.70999C7.877 9.49199 8.307 9.375 8.75 9.375H12.5V1.25H9.375C8.878 1.25 8.40101 1.44801 8.04901 1.79901C7.69701 2.15101 7.5 2.628 7.5 3.125V9.70999Z" fill="#00B9FF"/>
</svg>
