<svg width="103" height="33" viewBox="0 0 103 33" fill="none" xmlns="http://www.w3.org/2000/svg">
<g filter="url(#filter0_d_9_4)">
<path d="M13.705 0.00457764V1.77268L5.41299 6.74388L5.41199 9.73798L4.62799 9.24258L4.63 5.47048L13.705 0.00457764Z" fill="#004596"/>
<path d="M26.988 6.37486L26.984 17.4083L24.542 15.9221L24.545 8.47215L23.627 9.03755L23.628 6.82146L17.894 3.35355L17.895 0.831055L26.988 6.37486Z" fill="#004596"/>
<path d="M6.711 7.52258L5.41101 8.88948L5.41199 6.74408L6.711 7.52258Z" fill="#E86B00"/>
<path d="M9.28799 9.10306L7.495 10.9884L5.41199 9.73806L5.41299 8.88936L6.71301 7.52246L9.28799 9.10306Z" fill="#DB4893"/>
<path d="M11.887 10.6834L10.094 12.5687L7.495 10.9881L9.28799 9.10278L11.887 10.6834Z" fill="#12A8DF"/>
<path d="M11.1 15.8225L11.101 13.2056L10.608 12.8989L10.093 12.5687L11.886 10.6833L14.484 12.2639L11.1 15.8225Z" fill="#004596"/>
<path d="M14.527 16.5312L11.097 20.1133L11.099 15.8226L14.484 12.264L14.528 12.2876L14.527 16.5312Z" fill="#E86B00"/>
<path d="M14.547 20.8219L13.045 22.3772L11.119 21.1977L11.12 20.0897L14.526 16.5311L14.547 20.8219Z" fill="#DB4893"/>
<path d="M23.627 6.96326L23.626 9.03786L19.01 11.7944L23.627 6.96326Z" fill="#DB4893"/>
<path d="M14.502 23.3212L13.024 22.4247L14.503 20.8458L14.502 23.3212Z" fill="#4CA4D9"/>
<path d="M11.101 13.2056L11.096 24.239L2.00201 18.6716L2.00699 7.63818L4.62701 9.24238L5.41101 9.73778L7.49399 10.9881L10.093 12.5687L10.608 12.899L11.101 13.2056Z" fill="#00A7E2"/>
<path d="M23.627 6.82147V6.96287L19.01 11.7941V11.8177L18.405 12.1711L15.447 13.9381L15.446 15.5412L14.527 16.531L14.529 12.2874L17.89 10.2612L23.627 6.82147Z" fill="#7B4A2A"/>
<path d="M15.444 19.8557L14.525 20.8219L14.527 16.5312L15.446 15.5414L15.444 19.8557Z" fill="#774159"/>
<path d="M23.627 6.96326L23.626 9.03786L19.01 11.7944L23.627 6.96326Z" fill="#774159"/>
<path d="M15.444 19.8558L15.443 22.7792L14.524 23.3447L14.525 20.8221L15.444 19.8558Z" fill="#405C6C"/>
<path d="M24.544 8.47235L24.54 19.5293L15.442 24.9953L15.444 19.8558L15.445 15.5414L15.446 13.9383L18.404 12.1712L19.009 11.8179V11.7943L23.625 9.03775L24.544 8.47235Z" fill="#00A7E2"/>
<path d="M13.704 1.7493L14.511 1.2782L13.704 1.7493Z" fill="white"/>
<path d="M6.71198 7.52198L10.164 3.89268L5.41296 6.74348L13.704 1.77228L10.164 3.89268L6.71198 7.52198Z" fill="#6775B2"/>
<path d="M6.71198 7.52231L5.41296 6.74371L10.164 3.89301L6.71198 7.52231Z" fill="#EF9659"/>
<path d="M9.28699 9.10247L6.711 7.52197L10.163 3.89267L13.704 1.74866L14.51 1.27747L15.921 2.15037L9.28699 9.10247Z" fill="#E68AB8"/>
<path d="M11.885 10.6834L9.28699 9.10277L15.922 2.15057L18.52 3.73117L11.885 10.6834Z" fill="#7FC2E9"/>
<path d="M14.484 12.2639L11.886 10.6833L18.52 3.73108L21.096 5.28818L14.484 12.2639Z" fill="#6775B2"/>
<path d="M14.529 12.2876L14.485 12.264L21.096 5.28827L23.627 6.84527L14.529 12.2876Z" fill="#EF9659"/>
</g>
<path d="M36.915 20.4383C33.987 20.4383 32.535 18.3862 32.535 15.8265V8.44768C32.535 5.88798 33.988 3.83588 36.915 3.83588H38.068C40.996 3.83588 42.471 5.88798 42.471 8.44768V15.8265C42.471 18.3862 40.996 20.4383 38.068 20.4383H36.915ZM40.258 8.44768C40.258 7.06418 39.613 5.95758 38.068 5.95758H36.915C35.394 5.95758 34.748 7.06418 34.748 8.44768V15.8265C34.748 17.1869 35.394 18.3166 36.915 18.3166H38.068C39.613 18.3166 40.258 17.1869 40.258 15.8265V8.44768Z" fill="#004596"/>
<path d="M52.64 20.4383C49.711 20.4383 48.259 18.3862 48.259 15.8265V8.44768C48.259 5.88798 49.712 3.83588 52.64 3.83588H54.415C56.744 3.83588 58.196 4.82788 58.196 7.22518C58.196 7.84738 57.874 8.33178 57.089 8.33178C56.283 8.33178 55.983 7.84738 55.983 7.22518C55.983 6.34788 55.359 5.95758 54.415 5.95758H52.64C51.119 5.95758 50.472 7.06418 50.472 8.44768V15.8265C50.472 17.1869 51.117 18.3166 52.64 18.3166H54.415C55.361 18.3166 55.983 17.925 55.983 17.0258C55.983 16.4023 56.282 15.918 57.089 15.918C57.874 15.918 58.196 16.4036 58.196 17.0258C58.196 19.4232 56.744 20.4383 54.415 20.4383H52.64Z" fill="#004596"/>
<path d="M64.79 20.2069C63.984 20.2069 63.684 19.7226 63.684 19.0991V5.17492C63.684 4.55272 63.984 4.06842 64.79 4.06842H71.476C72.075 4.06842 72.536 4.36722 72.536 5.12852C72.536 5.88862 72.075 6.19002 71.476 6.19002H65.897V10.8237H70.369C70.968 10.8237 71.43 11.147 71.43 11.8839C71.43 12.6452 70.968 12.9441 70.369 12.9441H65.897V18.0866H71.476C72.075 18.0866 72.536 18.3867 72.536 19.1468C72.536 19.9081 72.075 20.2082 71.476 20.2082H64.79V20.2069Z" fill="#004596"/>
<path d="M84.873 15.7106H79.893L78.625 19.6293C78.441 20.1832 78.002 20.5748 77.31 20.3674C76.595 20.1368 76.434 19.5597 76.618 18.9839L81.23 4.64238C81.415 4.08968 81.691 3.83588 82.338 3.83588H82.452C83.076 3.83588 83.375 4.08968 83.56 4.64238L88.172 18.9839C88.356 19.5365 88.149 20.1356 87.48 20.3674C86.812 20.5748 86.349 20.1832 86.165 19.6293L84.873 15.7106ZM82.728 9.02348C82.567 8.51728 82.497 8.26348 82.383 7.70958H82.36C82.244 8.26348 82.174 8.51598 82.013 9.02348L80.56 13.5657H84.226L82.728 9.02348Z" fill="#004596"/>
<path d="M95.109 9.16329H95.086C95.133 9.57809 95.179 10.132 95.179 10.7542V19.3311C95.179 19.9301 94.856 20.4389 94.071 20.4389C93.265 20.4389 92.966 19.9314 92.966 19.3311V4.94449C92.966 4.32099 93.265 3.83789 94.071 3.83789C94.532 3.83789 94.856 3.97569 95.202 4.64559L100.529 15.1122H100.552C100.507 14.6961 100.459 14.1448 100.459 13.5213V4.94449C100.459 4.32099 100.759 3.83789 101.566 3.83789C102.35 3.83789 102.672 4.32229 102.672 4.94449V19.3311C102.672 19.9301 102.35 20.4389 101.566 20.4389C101.105 20.4389 100.759 20.2766 100.436 19.6312L95.109 9.16329Z" fill="#004596"/>
<defs>
<filter id="filter0_d_9_4" x="0.0341063" y="0.00457764" width="30.2338" height="32.8623" filterUnits="userSpaceOnUse" color-interpolation-filters="sRGB">
<feFlood flood-opacity="0" result="BackgroundImageFix"/>
<feColorMatrix in="SourceAlpha" type="matrix" values="0 0 0 0 0 0 0 0 0 0 0 0 0 0 0 0 0 0 127 0" result="hardAlpha"/>
<feOffset dx="0.655972" dy="5.24778"/>
<feGaussianBlur stdDeviation="1.31194"/>
<feColorMatrix type="matrix" values="0 0 0 0 0 0 0 0 0 0 0 0 0 0 0 0 0 0 0.12 0"/>
<feBlend mode="normal" in2="BackgroundImageFix" result="effect1_dropShadow_9_4"/>
<feBlend mode="normal" in="SourceGraphic" in2="effect1_dropShadow_9_4" result="shape"/>
</filter>
</defs>
</svg>
