<svg width="15" height="15" viewBox="0 0 15 15" fill="none" xmlns="http://www.w3.org/2000/svg">
<path fill-rule="evenodd" clip-rule="evenodd" d="M7.52399 1.875C4.40699 1.875 1.88098 4.393 1.88098 7.5C1.88098 10.607 4.40699 13.125 7.52399 13.125C10.64 13.125 13.167 10.607 13.167 7.5C13.167 4.393 10.64 1.875 7.52399 1.875ZM0.627014 7.5C0.627014 3.703 3.71499 0.625 7.52399 0.625C11.333 0.625 14.421 3.703 14.421 7.5C14.421 11.297 11.333 14.375 7.52399 14.375C3.71499 14.375 0.627014 11.297 0.627014 7.5Z" fill="#464646"/>
<path fill-rule="evenodd" clip-rule="evenodd" d="M7.52301 3.125C7.87001 3.125 8.15002 3.405 8.15002 3.75V7.11401L10.312 8.19098C10.622 8.34498 10.747 8.72103 10.592 9.03003C10.437 9.33803 10.061 9.46302 9.75098 9.30902L7.24298 8.05902C7.03098 7.95302 6.896 7.737 6.896 7.5V3.75C6.896 3.405 7.17701 3.125 7.52301 3.125Z" fill="#464646"/>
</svg>
