<svg width="14" height="15" viewBox="0 0 14 15" fill="none" xmlns="http://www.w3.org/2000/svg">
<path fill-rule="evenodd" clip-rule="evenodd" d="M2.633 3.125C2.288 3.125 2.008 3.405 2.008 3.75V12.5C2.008 12.845 2.288 13.125 2.633 13.125H11.383C11.728 13.125 12.008 12.845 12.008 12.5V3.75C12.008 3.405 11.728 3.125 11.383 3.125H2.633ZM0.757996 3.75C0.757996 2.714 1.597 1.875 2.633 1.875H11.383C12.418 1.875 13.258 2.714 13.258 3.75V12.5C13.258 13.536 12.418 14.375 11.383 14.375H2.633C1.597 14.375 0.757996 13.536 0.757996 12.5V3.75Z" fill="#00B9FF"/>
<path fill-rule="evenodd" clip-rule="evenodd" d="M9.508 0.625C9.853 0.625 10.133 0.905 10.133 1.25V3.75C10.133 4.095 9.853 4.375 9.508 4.375C9.163 4.375 8.883 4.095 8.883 3.75V1.25C8.883 0.905 9.163 0.625 9.508 0.625Z" fill="#00B9FF"/>
<path fill-rule="evenodd" clip-rule="evenodd" d="M4.508 0.625C4.853 0.625 5.133 0.905 5.133 1.25V3.75C5.133 4.095 4.853 4.375 4.508 4.375C4.163 4.375 3.883 4.095 3.883 3.75V1.25C3.883 0.905 4.163 0.625 4.508 0.625Z" fill="#00B9FF"/>
<path fill-rule="evenodd" clip-rule="evenodd" d="M0.757996 6.25C0.757996 5.905 1.038 5.625 1.383 5.625H12.633C12.978 5.625 13.258 5.905 13.258 6.25C13.258 6.595 12.978 6.875 12.633 6.875H1.383C1.038 6.875 0.757996 6.595 0.757996 6.25Z" fill="#00B9FF"/>
</svg>
