<svg width="39" height="28" viewBox="0 0 39 28" fill="none" xmlns="http://www.w3.org/2000/svg">
<path d="M12.243 9.00974V17.6717C12.243 19.3417 13.198 20.8887 14.743 21.7217L22.757 26.0527C24.302 26.8897 26.211 26.8897 27.756 26.0527L35.771 21.7217C37.316 20.8847 38.27 19.3417 38.27 17.6717V9.00974C38.27 7.33874 37.316 5.79174 35.771 4.95874L27.756 0.62775C26.211 -0.20925 24.302 -0.20925 22.757 0.62775L14.743 4.95874C13.198 5.79174 12.243 7.33474 12.243 9.00974Z" fill="#00B9FF"/>
<path d="M1.97302 21.5348C0.886022 21.5348 0 20.7098 0 19.6888V12.4288C0 11.4118 0.882023 10.5828 1.97302 10.5828C3.05902 10.5828 3.94501 11.4088 3.94501 12.4288V19.6888C3.94501 20.7058 3.05902 21.5348 1.97302 21.5348ZM1.97302 11.1618C1.22602 11.1618 0.619019 11.7298 0.619019 12.4288V19.6888C0.619019 20.3878 1.22602 20.9558 1.97302 20.9558C2.71902 20.9558 3.32599 20.3878 3.32599 19.6888V12.4288C3.32599 11.7298 2.71902 11.1618 1.97302 11.1618Z" fill="#464646"/>
<path d="M20.82 21.5348C19.734 21.5348 18.848 20.7098 18.848 19.6888V12.4288C18.848 11.4118 19.73 10.5828 20.82 10.5828C21.906 10.5828 22.793 11.4088 22.793 12.4288V19.6888C22.789 20.7058 21.906 21.5348 20.82 21.5348ZM20.82 11.1618C20.074 11.1618 19.467 11.7298 19.467 12.4288V19.6888C19.467 20.3878 20.074 20.9558 20.82 20.9558C21.567 20.9558 22.174 20.3878 22.174 19.6888V12.4288C22.174 11.7298 21.567 11.1618 20.82 11.1618Z" fill="#464646"/>
<path d="M14.168 27.7608C13.082 27.7608 12.195 26.9348 12.195 25.9148V22.5738H10.594V25.9148C10.594 26.9308 9.71197 27.7608 8.62097 27.7608C7.53497 27.7608 6.64899 26.9348 6.64899 25.9148V22.4578C5.35099 22.1028 4.43298 20.9748 4.43298 19.6888V11.3898C4.43298 10.9448 4.81998 10.5828 5.29498 10.5828H17.49C17.965 10.5828 18.353 10.9448 18.353 11.3898V19.6888C18.353 20.9748 17.434 22.0998 16.136 22.4578V25.9148C16.14 26.9308 15.254 27.7608 14.168 27.7608ZM9.979 21.9948H12.814V25.9148C12.814 26.6138 13.421 27.1818 14.168 27.1818C14.915 27.1818 15.522 26.6138 15.522 25.9148V21.9948L15.769 21.9468C16.911 21.7298 17.738 20.7768 17.738 19.6858V11.3858C17.738 11.2588 17.626 11.1538 17.49 11.1538H5.29498C5.15898 11.1538 5.04797 11.2588 5.04797 11.3858V19.6858C5.04797 20.7768 5.87399 21.7258 7.01599 21.9468L7.26398 21.9948V25.9148C7.26398 26.6138 7.871 27.1818 8.617 27.1818C9.364 27.1818 9.97101 26.6138 9.97101 25.9148V21.9948H9.979Z" fill="#464646"/>
<path d="M17.494 10.1228H5.29901C4.82401 10.1228 4.43701 9.76075 4.43701 9.31575C4.42501 7.48475 5.335 5.77676 6.888 4.68176L5.79797 3.65776C5.47097 3.34076 5.471 2.84675 5.794 2.53375C6.126 2.21175 6.67302 2.20476 7.01202 2.51476L8.44598 3.85576C10.33 3.14576 12.459 3.14576 14.348 3.85576L15.773 2.51875C15.957 2.34975 16.172 2.27876 16.404 2.27576C16.636 2.27876 16.847 2.36476 17.011 2.52176C17.342 2.84376 17.33 3.35576 16.991 3.66176L15.901 4.67876C17.454 5.76976 18.365 7.47675 18.353 9.31175C18.357 9.76075 17.969 10.1228 17.494 10.1228ZM6.41699 2.86575C6.35299 2.86575 6.28897 2.88875 6.23797 2.93675C6.14597 3.02675 6.14597 3.16876 6.23797 3.25876L7.85101 4.76776L7.53497 4.96275C5.96997 5.92975 5.044 7.55975 5.052 9.31175C5.052 9.43875 5.16301 9.54376 5.29901 9.54376H17.494C17.63 9.54376 17.742 9.43875 17.742 9.31175C17.75 7.55575 16.823 5.92676 15.258 4.95876L14.943 4.76376L16.56 3.25076C16.66 3.15776 16.664 3.01175 16.568 2.92175C16.524 2.87675 16.46 2.85475 16.396 2.85075C16.332 2.85075 16.268 2.87375 16.22 2.91475L14.487 4.53676L14.296 4.45775C12.451 3.70675 10.338 3.71075 8.49798 4.45775L8.30603 4.53676L6.58502 2.92175C6.53702 2.88875 6.47699 2.86575 6.41699 2.86575ZM14.168 8.04875C13.693 8.04875 13.305 7.68676 13.305 7.24176C13.305 6.79676 13.693 6.43475 14.168 6.43475C14.643 6.43475 15.03 6.79676 15.03 7.24176C15.03 7.68676 14.643 8.04875 14.168 8.04875ZM14.168 7.00975C14.032 7.00975 13.92 7.11476 13.92 7.24176C13.92 7.36876 14.032 7.47375 14.168 7.47375C14.304 7.47375 14.415 7.36876 14.415 7.24176C14.415 7.11476 14.304 7.00975 14.168 7.00975ZM8.625 8.04875C8.15 8.04875 7.763 7.68676 7.763 7.24176C7.763 6.79676 8.15 6.43475 8.625 6.43475C9.101 6.43475 9.48797 6.79676 9.48797 7.24176C9.48797 7.68676 9.101 8.04875 8.625 8.04875ZM8.625 7.00975C8.49 7.00975 8.37799 7.11476 8.37799 7.24176C8.37799 7.36876 8.49 7.47375 8.625 7.47375C8.761 7.47375 8.87298 7.36876 8.87298 7.24176C8.87298 7.11476 8.761 7.00975 8.625 7.00975Z" fill="#464646"/>
</svg>
