<svg width="13" height="15" viewBox="0 0 13 15" fill="none" xmlns="http://www.w3.org/2000/svg">
<path fill-rule="evenodd" clip-rule="evenodd" d="M6.35498 1.25C5.02898 1.25 3.75801 1.77699 2.82001 2.71399C1.88201 3.65199 1.35498 4.924 1.35498 6.25C1.35498 8.186 2.61501 10.065 3.99701 11.523C4.67501 12.239 5.35503 12.825 5.86603 13.232C6.05603 13.383 6.22198 13.509 6.35498 13.608C6.48898 13.509 6.65497 13.383 6.84497 13.232C7.35597 12.825 8.03599 12.239 8.71399 11.523C10.096 10.065 11.355 8.186 11.355 6.25C11.355 4.924 10.829 3.65199 9.89099 2.71399C8.95299 1.77699 7.68198 1.25 6.35498 1.25ZM6.35498 14.375C6.00898 14.895 6.008 14.895 6.008 14.895L6.00702 14.894L6.00201 14.891L5.98798 14.881C5.97598 14.873 5.95897 14.861 5.93597 14.846C5.89197 14.815 5.82799 14.77 5.74799 14.712C5.58699 14.596 5.35898 14.426 5.08698 14.21C4.54398 13.777 3.81799 13.152 3.08899 12.383C1.65799 10.872 0.10498 8.689 0.10498 6.25C0.10498 4.592 0.763974 3.00299 1.93597 1.83099C3.10797 0.657994 4.69798 0 6.35498 0C8.01298 0 9.60302 0.657994 10.775 1.83099C11.947 3.00299 12.605 4.592 12.605 6.25C12.605 8.689 11.053 10.872 9.62201 12.383C8.89301 13.152 8.16702 13.777 7.62402 14.21C7.35102 14.426 7.12401 14.596 6.96301 14.712C6.88301 14.77 6.81899 14.815 6.77399 14.846C6.75199 14.861 6.73502 14.873 6.72302 14.881L6.70801 14.891L6.70398 14.894C6.70398 14.894 6.70198 14.895 6.35498 14.375ZM6.35498 14.375L6.70203 14.895C6.49203 15.035 6.218 15.035 6.008 14.895L6.35498 14.375Z" fill="#00B9FF"/>
<path fill-rule="evenodd" clip-rule="evenodd" d="M6.35498 5C5.66498 5 5.10498 5.56 5.10498 6.25C5.10498 6.94 5.66498 7.5 6.35498 7.5C7.04598 7.5 7.60498 6.94 7.60498 6.25C7.60498 5.56 7.04598 5 6.35498 5ZM3.85498 6.25C3.85498 4.869 4.97498 3.75 6.35498 3.75C7.73598 3.75 8.85498 4.869 8.85498 6.25C8.85498 7.631 7.73598 8.75 6.35498 8.75C4.97498 8.75 3.85498 7.631 3.85498 6.25Z" fill="#00B9FF"/>
</svg>
